<svg width="1584" height="396" viewBox="0 0 1584 396" fill="none" xmlns="http://www.w3.org/2000/svg">
<rect width="1584" height="396" fill="#F5F5F5"/>
<g id="Awesome banner" clip-path="url(#clip0_0_1)">
<rect width="1584" height="396" fill="url(#paint0_linear_0_1)"/>
<ellipse id="Ellipse 2" cx="323" cy="64" rx="285" ry="288" fill="url(#paint1_linear_0_1)" fill-opacity="0.1"/>
<g id="copyright">
<path d="M75.95 334.52L72.30 334.52L72.30 311.16L77.20 311.16L83.70 330.04Q83.60 329.02 83.50 327.62Q83.41 326.23 83.33 324.79Q83.25 323.35 83.25 322.23L83.25 311.16L86.90 311.16L86.90 334.52L82 334.52L75.57 315.64Q75.63 316.57 75.73 317.88Q75.82 319.19 75.89 320.57Q75.95 321.94 75.95 323.10L75.95 334.52M98.80 334.84Q96.46 334.84 94.67 333.96Q92.88 333.08 91.89 331.53Q90.90 329.98 90.90 327.93Q90.90 325.78 92.13 324.18Q93.36 322.58 95.34 322.17L95.34 322.10Q93.65 321.75 92.61 320.38Q91.57 319 91.57 317.11Q91.57 315.26 92.48 313.85Q93.39 312.44 95.02 311.64Q96.66 310.84 98.80 310.84Q100.94 310.84 102.59 311.64Q104.24 312.44 105.15 313.85Q106.06 315.26 106.06 317.11Q106.06 319 105.01 320.38Q103.95 321.75 102.26 322.10L102.26 322.17Q104.24 322.58 105.47 324.18Q106.70 325.78 106.70 327.93Q106.70 329.98 105.71 331.53Q104.72 333.08 102.93 333.96Q101.14 334.84 98.80 334.84M98.80 320.73Q100.30 320.73 101.23 319.82Q102.16 318.90 102.16 317.46Q102.16 315.99 101.23 315.08Q100.30 314.17 98.80 314.17Q97.30 314.17 96.37 315.08Q95.44 315.99 95.44 317.46Q95.44 318.90 96.37 319.82Q97.30 320.73 98.80 320.73M98.80 331.45Q100.56 331.45 101.68 330.42Q102.80 329.40 102.80 327.74Q102.80 326.04 101.68 325Q100.56 323.96 98.80 323.96Q97.04 323.96 95.92 325Q94.80 326.04 94.80 327.74Q94.80 329.40 95.92 330.42Q97.04 331.45 98.80 331.45M114.35 334.52L110.70 334.52L110.70 311.16L115.60 311.16L122.10 330.04Q122 329.02 121.90 327.62Q121.81 326.23 121.73 324.79Q121.65 323.35 121.65 322.23L121.65 311.16L125.30 311.16L125.30 334.52L120.40 334.52L113.97 315.64Q114.03 316.57 114.13 317.88Q114.22 319.19 114.29 320.57Q114.35 321.94 114.35 323.10" fill="white" fill-opacity="0.9"/>
<path d="M161.48 325.24L151.24 325.24L151.24 322.68L161.48 322.68" fill="white" fill-opacity="0.9"/>
<path d="M195.02 334.84Q191.82 334.84 189.96 333.05Q188.11 331.26 188.11 328.12L188.11 317.56Q188.11 314.42 189.96 312.63Q191.82 310.84 195.02 310.84Q198.15 310.84 200.01 312.65Q201.87 314.46 201.87 317.56L198.99 317.56Q198.99 315.58 197.95 314.50Q196.91 313.43 195.02 313.43Q193.13 313.43 192.06 314.50Q190.99 315.58 190.99 317.56L190.99 328.12Q190.99 330.10 192.06 331.18Q193.13 332.25 195.02 332.25Q196.91 332.25 197.95 331.18Q198.99 330.10 198.99 328.12L201.87 328.12Q201.87 331.22 200.01 333.03Q198.15 334.84 195.02 334.84" fill="white" fill-opacity="0.9"/>
<path d="M213.96 334.84Q210.83 334.84 209 333.02Q207.18 331.19 207.18 327.80L207.18 317.88Q207.18 314.49 209 312.66Q210.83 310.84 213.96 310.84Q217.10 310.84 218.92 312.66Q220.75 314.49 220.75 317.85L220.75 327.80Q220.75 331.19 218.92 333.02Q217.10 334.84 213.96 334.84M213.96 332.25Q215.85 332.25 216.86 331.18Q217.87 330.10 217.87 328.12L217.87 317.56Q217.87 315.58 216.86 314.50Q215.85 313.43 213.96 313.43Q212.11 313.43 211.08 314.50Q210.06 315.58 210.06 317.56L210.06 328.12Q210.06 330.10 211.08 331.18Q212.11 332.25 213.96 332.25" fill="white" fill-opacity="0.9"/>
<path d="M228.65 334.52L225.87 334.52L225.87 311.16L230.12 311.16L233.10 321.27L236.20 311.16L240.46 311.16L240.46 334.52L237.67 334.52L237.67 323.48Q237.67 321.91 237.72 319.88Q237.77 317.85 237.87 315.77Q237.96 313.69 238.09 312.02L234.31 324.09L231.82 324.09L228.20 312.31Q228.46 314.68 228.55 317.50Q228.65 320.31 228.65 323.48" fill="white" fill-opacity="0.9"/>
<path d="M247.85 334.52L245.07 334.52L245.07 311.16L249.32 311.16L252.30 321.27L255.40 311.16L259.66 311.16L259.66 334.52L256.87 334.52L256.87 323.48Q256.87 321.91 256.92 319.88Q256.97 317.85 257.07 315.77Q257.16 313.69 257.29 312.02L253.51 324.09L251.02 324.09L247.40 312.31Q247.66 314.68 247.75 317.50Q247.85 320.31 247.85 323.48" fill="white" fill-opacity="0.9"/>
<path d="M271.56 334.84Q268.30 334.84 266.57 333.03Q264.84 331.22 264.84 328.12L264.84 311.16L267.72 311.16L267.72 328.12Q267.72 330.04 268.67 331.16Q269.61 332.28 271.56 332.28Q273.48 332.28 274.44 331.16Q275.40 330.04 275.40 328.12L275.40 311.16L278.28 311.16L278.28 328.12Q278.28 331.26 276.57 333.05Q274.86 334.84 271.56 334.84" fill="white" fill-opacity="0.9"/>
<path d="M286.83 334.52L284.04 334.52L284.04 311.16L287.88 311.16L295.02 331.16Q294.95 330.36 294.87 329.19Q294.79 328.02 294.75 326.73Q294.70 325.43 294.70 324.28L294.70 311.16L297.48 311.16L297.48 334.52L293.64 334.52L286.54 314.52Q286.60 315.29 286.67 316.46Q286.73 317.62 286.78 318.92Q286.83 320.22 286.83 321.40" fill="white" fill-opacity="0.9"/>
<path d="M316.20 334.52L303.72 334.52L303.72 331.90L308.49 331.90L308.49 313.78L303.72 313.78L303.72 311.16L316.20 311.16L316.20 313.78L311.43 313.78L311.43 331.90L316.20 331.90" fill="white" fill-opacity="0.9"/>
<path d="M330.60 334.52L327.72 334.52L327.72 313.78L321.32 313.78L321.32 311.16L337 311.16L337 313.78L330.60 313.78" fill="white" fill-opacity="0.9"/>
<path d="M349.80 334.52L346.92 334.52L346.92 325.78L339.88 311.16L342.95 311.16L347.50 320.76Q347.88 321.56 348.11 322.12Q348.33 322.68 348.39 322.94Q348.46 322.68 348.70 322.12Q348.94 321.56 349.32 320.76L353.87 311.16L356.84 311.16L349.80 325.78" fill="white" fill-opacity="0.9"/>
<path d="M382.83 334.52L380.04 334.52L380.04 311.16L383.88 311.16L391.02 331.16Q390.95 330.36 390.87 329.19Q390.79 328.02 390.75 326.73Q390.70 325.43 390.70 324.28L390.70 311.16L393.48 311.16L393.48 334.52L389.64 334.52L382.54 314.52Q382.60 315.29 382.67 316.46Q382.73 317.62 382.78 318.92Q382.83 320.22 382.83 321.40" fill="white" fill-opacity="0.9"/>
<path d="M405.96 334.84Q402.83 334.84 401 333.02Q399.18 331.19 399.18 327.80L399.18 317.88Q399.18 314.49 401 312.66Q402.83 310.84 405.96 310.84Q409.10 310.84 410.92 312.66Q412.75 314.49 412.75 317.85L412.75 327.80Q412.75 331.19 410.92 333.02Q409.10 334.84 405.96 334.84M405.96 332.25Q407.85 332.25 408.86 331.18Q409.87 330.10 409.87 328.12L409.87 317.56Q409.87 315.58 408.86 314.50Q407.85 313.43 405.96 313.43Q404.11 313.43 403.08 314.50Q402.06 315.58 402.06 317.56L402.06 328.12Q402.06 330.10 403.08 331.18Q404.11 332.25 405.96 332.25" fill="white" fill-opacity="0.9"/>
<path d="M424.55 334.52L418.51 334.52L418.51 311.16L424.55 311.16Q426.83 311.16 428.47 312.02Q430.12 312.89 431.03 314.46Q431.95 316.02 431.95 318.17L431.95 327.48Q431.95 329.62 431.03 331.21Q430.12 332.79 428.47 333.66Q426.83 334.52 424.55 334.52M421.39 313.72L421.39 331.96L424.55 331.96Q426.67 331.96 427.87 330.78Q429.07 329.59 429.07 327.48L429.07 318.17Q429.07 316.09 427.87 314.90Q426.67 313.72 424.55 313.72" fill="white" fill-opacity="0.9"/>
<path d="M451.40 334.52L437.96 334.52L437.96 311.16L451.40 311.16L451.40 313.78L440.81 313.78L440.81 321.02L450.28 321.02L450.28 323.58L440.81 323.58L440.81 331.90L451.40 331.90" fill="white" fill-opacity="0.9"/>
<path d="M463.69 334.84Q460.30 334.84 458.28 333.05Q456.27 331.26 456.27 328.12L459.15 328.12Q459.15 330.07 460.39 331.18Q461.64 332.28 463.69 332.28Q465.67 332.28 466.86 331.13Q468.04 329.98 468.04 328.12Q468.04 326.71 467.29 325.67Q466.54 324.63 465.13 324.25L461.58 323.26Q459.37 322.62 458.11 320.97Q456.84 319.32 456.84 317.08Q456.84 315.22 457.67 313.82Q458.51 312.41 460.01 311.62Q461.51 310.84 463.47 310.84Q465.45 310.84 466.97 311.62Q468.49 312.41 469.35 313.80Q470.22 315.19 470.22 317.02L467.34 317.02Q467.34 315.42 466.25 314.41Q465.16 313.40 463.47 313.40Q461.77 313.40 460.71 314.41Q459.66 315.42 459.66 317.02Q459.66 318.30 460.35 319.21Q461.03 320.12 462.28 320.47L465.93 321.50Q468.27 322.14 469.56 323.91Q470.86 325.69 470.86 328.12Q470.86 331.19 468.91 333.02Q466.95 334.84 463.69 334.84" fill="white" fill-opacity="0.9"/>
</g>
<path d="M74.37 197.64L72.23 197.64L72.23 180.12L77.63 180.12Q79.19 180.12 80.37 180.76Q81.54 181.39 82.19 182.52Q82.84 183.65 82.84 185.16Q82.84 186.94 81.93 188.21Q81.02 189.48 79.50 189.98L83.08 197.64L80.70 197.64L77.27 190.20L74.37 190.20L74.37 197.64M74.37 182.06L74.37 188.26L77.63 188.26Q78.98 188.26 79.79 187.40Q80.61 186.55 80.61 185.16Q80.61 183.74 79.79 182.90Q78.98 182.06 77.63 182.06" fill="white" fill-opacity="0.7"/>
<path d="M96.88 197.64L86.80 197.64L86.80 180.12L96.88 180.12L96.88 182.09L88.94 182.09L88.94 187.51L96.04 187.51L96.04 189.43L88.94 189.43L88.94 195.67L96.88 195.67" fill="white" fill-opacity="0.7"/>
<path d="M106.10 197.88Q103.55 197.88 102.04 196.54Q100.53 195.19 100.53 192.84L102.69 192.84Q102.69 194.30 103.62 195.13Q104.56 195.96 106.10 195.96Q107.58 195.96 108.47 195.10Q109.36 194.23 109.36 192.84Q109.36 191.78 108.80 191Q108.23 190.22 107.18 189.94L104.51 189.19Q102.86 188.71 101.91 187.48Q100.96 186.24 100.96 184.56Q100.96 183.17 101.58 182.11Q102.21 181.06 103.34 180.47Q104.46 179.88 105.93 179.88Q107.42 179.88 108.56 180.47Q109.70 181.06 110.34 182.10Q110.99 183.14 110.99 184.51L108.83 184.51Q108.83 183.31 108.02 182.56Q107.20 181.80 105.93 181.80Q104.66 181.80 103.86 182.56Q103.07 183.31 103.07 184.51Q103.07 185.47 103.59 186.16Q104.10 186.84 105.04 187.10L107.78 187.87Q109.53 188.35 110.50 189.68Q111.47 191.02 111.47 192.84Q111.47 195.14 110.01 196.51Q108.54 197.88 106.10 197.88" fill="white" fill-opacity="0.7"/>
<path d="M121.48 197.64L119.32 197.64L119.32 182.09L114.52 182.09L114.52 180.12L126.28 180.12L126.28 182.09L121.48 182.09" fill="white" fill-opacity="0.7"/>
<path d="M145.41 197.64L143.20 197.64L147.76 180.12L150.66 180.12L155.20 197.64L153.02 197.64L151.86 192.98L146.56 192.98L145.41 197.64M148.34 185.74L146.99 191.16L151.41 191.16L150.06 185.76Q149.68 184.22 149.46 183.19Q149.25 182.16 149.20 181.85Q149.15 182.16 148.94 183.19Q148.72 184.22 148.34 185.74" fill="white" fill-opacity="0.7"/>
<path d="M160.77 197.64L158.61 197.64L158.61 180.12L164.25 180.12Q166.70 180.12 168.15 181.52Q169.60 182.93 169.60 185.28Q169.60 187.63 168.15 189.04Q166.70 190.44 164.25 190.44L160.77 190.44L160.77 197.64M160.77 182.06L160.77 188.50L164.25 188.50Q165.66 188.50 166.52 187.62Q167.37 186.74 167.37 185.28Q167.37 183.79 166.52 182.93Q165.66 182.06 164.25 182.06" fill="white" fill-opacity="0.7"/>
<path d="M182.68 197.64L173.32 197.64L173.32 195.67L176.90 195.67L176.90 182.09L173.32 182.09L173.32 180.12L182.68 180.12L182.68 182.09L179.10 182.09L179.10 195.67L182.68 195.67" fill="white" fill-opacity="0.7"/>
<path d="M206.92 197.64L204.76 197.64L204.76 188.21L200.92 188.21L200.92 186.24L204.76 186.24L204.76 183.48Q204.76 181.92 205.74 181.02Q206.73 180.12 208.46 180.12L212.32 180.12L212.32 182.09L208.46 182.09Q206.92 182.09 206.92 183.48L206.92 186.24L212.32 186.24L212.32 188.21L206.92 188.21" fill="white" fill-opacity="0.7"/>
<path d="M221.20 197.83Q218.82 197.83 217.42 196.44Q216.02 195.05 216.02 192.55L216.02 189.53Q216.02 187.01 217.41 185.63Q218.80 184.25 221.20 184.25Q223.60 184.25 224.99 185.63Q226.38 187.01 226.38 189.53L226.38 192.55Q226.38 195.05 224.98 196.44Q223.58 197.83 221.20 197.83M221.20 195.91Q222.62 195.91 223.42 195.12Q224.22 194.33 224.22 192.79L224.22 189.29Q224.22 187.75 223.42 186.96Q222.62 186.17 221.20 186.17Q219.81 186.17 218.99 186.96Q218.18 187.75 218.18 189.29L218.18 192.79Q218.18 194.33 218.99 195.12Q219.81 195.91 221.20 195.91" fill="white" fill-opacity="0.7"/>
<path d="M233.25 197.64L231.09 197.64L231.09 184.44L233.25 184.44L233.25 186.96L233.30 186.96Q233.46 185.69 234.38 184.94Q235.29 184.20 236.82 184.20Q238.89 184.20 240 185.44Q241.12 186.67 241.12 188.95L241.12 190.08L238.96 190.08L238.96 188.95Q238.96 186.07 236.15 186.07Q234.74 186.07 233.99 186.89Q233.25 187.70 233.25 189.24" fill="white" fill-opacity="0.7"/>
<path d="M264.40 197.88Q262.07 197.88 260.64 196.48Q259.22 195.07 259.22 192.60L259.22 189.48Q259.22 187.01 260.64 185.60Q262.07 184.20 264.40 184.20Q265.96 184.20 267.12 184.82Q268.29 185.45 268.94 186.58Q269.58 187.70 269.58 189.24L269.58 191.59L261.33 191.59L261.33 192.84Q261.33 194.30 262.17 195.16Q263.01 196.01 264.40 196.01Q265.60 196.01 266.38 195.54Q267.16 195.07 267.33 194.28L269.49 194.28Q269.27 195.94 267.88 196.91Q266.49 197.88 264.40 197.88M261.33 189.24L261.33 189.91L267.47 189.91L267.47 189.24Q267.47 187.68 266.67 186.83Q265.86 185.98 264.40 185.98Q262.94 185.98 262.13 186.83Q261.33 187.68 261.33 189.24" fill="white" fill-opacity="0.7"/>
<path d="M275.85 197.64L273.76 197.64L273.76 180.12L276.64 180.12L281.99 195.12Q281.94 194.52 281.88 193.64Q281.82 192.77 281.79 191.80Q281.75 190.82 281.75 189.96L281.75 180.12L283.84 180.12L283.84 197.64L280.96 197.64L275.63 182.64Q275.68 183.22 275.73 184.09Q275.78 184.97 275.81 185.94Q275.85 186.91 275.85 187.80" fill="white" fill-opacity="0.7"/>
<path d="M292.05 197.88Q290.01 197.88 288.81 196.74Q287.61 195.60 287.61 193.75Q287.61 192.53 288.16 191.62Q288.71 190.70 289.70 190.19Q290.68 189.67 291.95 189.67L296.03 189.67L296.03 188.64Q296.03 186.07 293.22 186.07Q291.98 186.07 291.21 186.53Q290.44 186.98 290.39 187.80L288.23 187.80Q288.35 186.24 289.68 185.22Q291.02 184.20 293.22 184.20Q295.62 184.20 296.91 185.35Q298.19 186.50 298.19 188.57L298.19 197.64L296.06 197.64L296.06 195.24L296.01 195.24Q295.82 196.46 294.78 197.17Q293.75 197.88 292.05 197.88M292.58 196.06Q294.16 196.06 295.10 195.29Q296.03 194.52 296.03 193.20L296.03 191.35L292.19 191.35Q291.14 191.35 290.48 191.99Q289.82 192.62 289.82 193.68Q289.82 194.78 290.55 195.42Q291.28 196.06 292.58 196.06" fill="white" fill-opacity="0.7"/>
<path d="M304.77 197.64L302.61 197.64L302.61 184.44L304.77 184.44L304.77 186.96L304.79 186.96Q304.96 185.64 305.87 184.92Q306.78 184.20 308.30 184.20Q310.29 184.20 311.46 185.42Q312.64 186.65 312.64 188.76L312.64 197.64L310.48 197.64L310.48 189.14Q310.48 187.63 309.72 186.83Q308.97 186.02 307.67 186.02Q306.33 186.02 305.55 186.86Q304.77 187.70 304.77 189.24" fill="white" fill-opacity="0.7"/>
<path d="M322 197.83Q319.62 197.83 318.22 196.44Q316.82 195.05 316.82 192.55L316.82 189.53Q316.82 187.01 318.21 185.63Q319.60 184.25 322 184.25Q324.40 184.25 325.79 185.63Q327.18 187.01 327.18 189.53L327.18 192.55Q327.18 195.05 325.78 196.44Q324.38 197.83 322 197.83M322 195.91Q323.42 195.91 324.22 195.12Q325.02 194.33 325.02 192.79L325.02 189.29Q325.02 187.75 324.22 186.96Q323.42 186.17 322 186.17Q320.61 186.17 319.79 186.96Q318.98 187.75 318.98 189.29L318.98 192.79Q318.98 194.33 319.79 195.12Q320.61 195.91 322 195.91" fill="white" fill-opacity="0.7"/>
<path d="M333.02 197.64L330.93 197.64L330.93 180.12L334.12 180.12L336.35 187.70L338.68 180.12L341.87 180.12L341.87 197.64L339.78 197.64L339.78 189.36Q339.78 188.18 339.82 186.66Q339.86 185.14 339.93 183.58Q340 182.02 340.10 180.77L337.26 189.82L335.39 189.82L332.68 180.98Q332.87 182.76 332.94 184.87Q333.02 186.98 333.02 189.36" fill="white" fill-opacity="0.7"/>
<path d="M349.65 197.88Q347.61 197.88 346.41 196.74Q345.21 195.60 345.21 193.75Q345.21 192.53 345.76 191.62Q346.31 190.70 347.30 190.19Q348.28 189.67 349.55 189.67L353.63 189.67L353.63 188.64Q353.63 186.07 350.82 186.07Q349.58 186.07 348.81 186.53Q348.04 186.98 347.99 187.80L345.83 187.80Q345.95 186.24 347.28 185.22Q348.62 184.20 350.82 184.20Q353.22 184.20 354.51 185.35Q355.79 186.50 355.79 188.57L355.79 197.64L353.66 197.64L353.66 195.24L353.61 195.24Q353.42 196.46 352.38 197.17Q351.35 197.88 349.65 197.88M350.18 196.06Q351.76 196.06 352.70 195.29Q353.63 194.52 353.63 193.20L353.63 191.35L349.79 191.35Q348.74 191.35 348.08 191.99Q347.42 192.62 347.42 193.68Q347.42 194.78 348.15 195.42Q348.88 196.06 350.18 196.06" fill="white" fill-opacity="0.7"/>
<path d="M362.37 201.96L360.21 201.96L360.21 184.44L362.37 184.44L362.37 186.96L362.39 186.96Q362.56 185.66 363.52 184.93Q364.48 184.20 365.97 184.20Q367.96 184.20 369.14 185.51Q370.31 186.82 370.31 189.10L370.31 192.96Q370.31 195.24 369.14 196.56Q367.96 197.88 365.97 197.88Q364.48 197.88 363.52 197.14Q362.56 196.39 362.39 195.12L362.32 195.12L362.37 198.12L362.37 201.96M365.25 196.01Q366.62 196.01 367.38 195.29Q368.15 194.57 368.15 192.96L368.15 189.12Q368.15 187.49 367.38 186.78Q366.62 186.07 365.25 186.07Q363.93 186.07 363.15 186.91Q362.37 187.75 362.37 189.24L362.37 192.84Q362.37 194.33 363.15 195.17Q363.93 196.01 365.25 196.01" fill="white" fill-opacity="0.7"/>
<path d="M376.77 201.96L374.61 201.96L374.61 184.44L376.77 184.44L376.77 186.96L376.79 186.96Q376.96 185.66 377.92 184.93Q378.88 184.20 380.37 184.20Q382.36 184.20 383.54 185.51Q384.71 186.82 384.71 189.10L384.71 192.96Q384.71 195.24 383.54 196.56Q382.36 197.88 380.37 197.88Q378.88 197.88 377.92 197.14Q376.96 196.39 376.79 195.12L376.72 195.12L376.77 198.12L376.77 201.96M379.65 196.01Q381.02 196.01 381.78 195.29Q382.55 194.57 382.55 192.96L382.55 189.12Q382.55 187.49 381.78 186.78Q381.02 186.07 379.65 186.07Q378.33 186.07 377.55 186.91Q376.77 187.75 376.77 189.24L376.77 192.84Q376.77 194.33 377.55 195.17Q378.33 196.01 379.65 196.01" fill="white" fill-opacity="0.7"/>
<path d="M394 197.88Q391.67 197.88 390.24 196.48Q388.82 195.07 388.82 192.60L388.82 189.48Q388.82 187.01 390.24 185.60Q391.67 184.20 394 184.20Q395.56 184.20 396.72 184.82Q397.89 185.45 398.54 186.58Q399.18 187.70 399.18 189.24L399.18 191.59L390.93 191.59L390.93 192.84Q390.93 194.30 391.77 195.16Q392.61 196.01 394 196.01Q395.20 196.01 395.98 195.54Q396.76 195.07 396.93 194.28L399.09 194.28Q398.87 195.94 397.48 196.91Q396.09 197.88 394 197.88M390.93 189.24L390.93 189.91L397.07 189.91L397.07 189.24Q397.07 187.68 396.27 186.83Q395.46 185.98 394 185.98Q392.54 185.98 391.73 186.83Q390.93 187.68 390.93 189.24" fill="white" fill-opacity="0.7"/>
<path d="M406.05 197.64L403.89 197.64L403.89 184.44L406.05 184.44L406.05 186.96L406.10 186.96Q406.26 185.69 407.18 184.94Q408.09 184.20 409.62 184.20Q411.69 184.20 412.80 185.44Q413.92 186.67 413.92 188.95L413.92 190.08L411.76 190.08L411.76 188.95Q411.76 186.07 408.95 186.07Q407.54 186.07 406.79 186.89Q406.05 187.70 406.05 189.24" fill="white" fill-opacity="0.7"/>
<path d="M434.37 197.64L432.21 197.64L432.21 184.44L434.37 184.44L434.37 186.96L434.39 186.96Q434.56 185.64 435.47 184.92Q436.38 184.20 437.90 184.20Q439.89 184.20 441.06 185.42Q442.24 186.65 442.24 188.76L442.24 197.64L440.08 197.64L440.08 189.14Q440.08 187.63 439.32 186.83Q438.57 186.02 437.27 186.02Q435.93 186.02 435.15 186.86Q434.37 187.70 434.37 189.24" fill="white" fill-opacity="0.7"/>
<path d="M450.45 197.88Q448.41 197.88 447.21 196.74Q446.01 195.60 446.01 193.75Q446.01 192.53 446.56 191.62Q447.11 190.70 448.10 190.19Q449.08 189.67 450.35 189.67L454.43 189.67L454.43 188.64Q454.43 186.07 451.62 186.07Q450.38 186.07 449.61 186.53Q448.84 186.98 448.79 187.80L446.63 187.80Q446.75 186.24 448.08 185.22Q449.42 184.20 451.62 184.20Q454.02 184.20 455.31 185.35Q456.59 186.50 456.59 188.57L456.59 197.64L454.46 197.64L454.46 195.24L454.41 195.24Q454.22 196.46 453.18 197.17Q452.15 197.88 450.45 197.88M450.98 196.06Q452.56 196.06 453.50 195.29Q454.43 194.52 454.43 193.20L454.43 191.35L450.59 191.35Q449.54 191.35 448.88 191.99Q448.22 192.62 448.22 193.68Q448.22 194.78 448.95 195.42Q449.68 196.06 450.98 196.06" fill="white" fill-opacity="0.7"/>
<path d="M463.17 197.64L461.01 197.64L461.01 184.44L463.17 184.44L463.17 186.96L463.19 186.96Q463.36 185.64 464.27 184.92Q465.18 184.20 466.70 184.20Q468.69 184.20 469.86 185.42Q471.04 186.65 471.04 188.76L471.04 197.64L468.88 197.64L468.88 189.14Q468.88 187.63 468.12 186.83Q467.37 186.02 466.07 186.02Q464.73 186.02 463.95 186.86Q463.17 187.70 463.17 189.24" fill="white" fill-opacity="0.7"/>
<path d="M480.40 197.83Q478.02 197.83 476.62 196.44Q475.22 195.05 475.22 192.55L475.22 189.53Q475.22 187.01 476.61 185.63Q478 184.25 480.40 184.25Q482.80 184.25 484.19 185.63Q485.58 187.01 485.58 189.53L485.58 192.55Q485.58 195.05 484.18 196.44Q482.78 197.83 480.40 197.83M480.40 195.91Q481.82 195.91 482.62 195.12Q483.42 194.33 483.42 192.79L483.42 189.29Q483.42 187.75 482.62 186.96Q481.82 186.17 480.40 186.17Q479.01 186.17 478.19 186.96Q477.38 187.75 477.38 189.29L477.38 192.79Q477.38 194.33 478.19 195.12Q479.01 195.91 480.40 195.91" fill="white" fill-opacity="0.7"/>
<path d="M491.06 197.64L489.04 197.64L489.04 184.44L490.91 184.44L490.91 186.19L490.96 186.19Q491.08 185.30 491.67 184.75Q492.26 184.20 493.17 184.20Q494.03 184.20 494.63 184.70Q495.23 185.21 495.50 186.07L495.52 186.07Q495.69 185.21 496.28 184.70Q496.86 184.20 497.78 184.20Q499.05 184.20 499.80 185.15Q500.56 186.10 500.56 187.61L500.56 197.64L498.54 197.64L498.54 187.58Q498.54 186.79 498.16 186.32Q497.78 185.86 497.10 185.86Q496.46 185.86 496.07 186.31Q495.69 186.77 495.69 187.56L495.69 197.64L493.91 197.64L493.91 187.58Q493.91 186.79 493.53 186.32Q493.14 185.86 492.50 185.86Q491.82 185.86 491.44 186.31Q491.06 186.77 491.06 187.56" fill="white" fill-opacity="0.7"/>
<path d="M508.05 197.88Q506.01 197.88 504.81 196.74Q503.61 195.60 503.61 193.75Q503.61 192.53 504.16 191.62Q504.71 190.70 505.70 190.19Q506.68 189.67 507.95 189.67L512.03 189.67L512.03 188.64Q512.03 186.07 509.22 186.07Q507.98 186.07 507.21 186.53Q506.44 186.98 506.39 187.80L504.23 187.80Q504.35 186.24 505.68 185.22Q507.02 184.20 509.22 184.20Q511.62 184.20 512.91 185.35Q514.19 186.50 514.19 188.57L514.19 197.64L512.06 197.64L512.06 195.24L512.01 195.24Q511.82 196.46 510.78 197.17Q509.75 197.88 508.05 197.88M508.58 196.06Q510.16 196.06 511.10 195.29Q512.03 194.52 512.03 193.20L512.03 191.35L508.19 191.35Q507.14 191.35 506.48 191.99Q505.82 192.62 505.82 193.68Q505.82 194.78 506.55 195.42Q507.28 196.06 508.58 196.06" fill="white" fill-opacity="0.7"/>
<path d="M528.76 197.64L524.92 197.64Q523.29 197.64 522.30 196.69Q521.32 195.74 521.32 194.16L521.32 186.41L517.53 186.41L517.53 184.44L521.32 184.44L521.32 180.72L523.48 180.72L523.48 184.44L528.88 184.44L528.88 186.41L523.48 186.41L523.48 194.16Q523.48 194.83 523.88 195.25Q524.27 195.67 524.92 195.67L528.76 195.67" fill="white" fill-opacity="0.7"/>
<path d="M538 197.88Q535.67 197.88 534.24 196.48Q532.82 195.07 532.82 192.60L532.82 189.48Q532.82 187.01 534.24 185.60Q535.67 184.20 538 184.20Q539.56 184.20 540.72 184.82Q541.89 185.45 542.54 186.58Q543.18 187.70 543.18 189.24L543.18 191.59L534.93 191.59L534.93 192.84Q534.93 194.30 535.77 195.16Q536.61 196.01 538 196.01Q539.20 196.01 539.98 195.54Q540.76 195.07 540.93 194.28L543.09 194.28Q542.87 195.94 541.48 196.91Q540.09 197.88 538 197.88M534.93 189.24L534.93 189.91L541.07 189.91L541.07 189.24Q541.07 187.68 540.27 186.83Q539.46 185.98 538 185.98Q536.54 185.98 535.73 186.83Q534.93 187.68 534.93 189.24" fill="white" fill-opacity="0.7"/>
<path d="M550.05 197.64L547.89 197.64L547.89 184.44L550.05 184.44L550.05 186.96L550.10 186.96Q550.26 185.69 551.18 184.94Q552.09 184.20 553.62 184.20Q555.69 184.20 556.80 185.44Q557.92 186.67 557.92 188.95L557.92 190.08L555.76 190.08L555.76 188.95Q555.76 186.07 552.95 186.07Q551.54 186.07 550.79 186.89Q550.05 187.70 550.05 189.24" fill="white" fill-opacity="0.7"/>
<path d="M572.92 197.64L561.64 197.64L561.64 195.67L566.32 195.67L566.32 186.41L562.12 186.41L562.12 184.44L568.48 184.44L568.48 195.67L572.92 195.67L572.92 197.64M567.16 182.06Q566.37 182.06 565.91 181.66Q565.46 181.25 565.46 180.55Q565.46 179.83 565.91 179.41Q566.37 178.99 567.16 178.99Q567.95 178.99 568.41 179.41Q568.86 179.83 568.86 180.55Q568.86 181.25 568.41 181.66Q567.95 182.06 567.16 182.06" fill="white" fill-opacity="0.7"/>
<path d="M580.05 197.88Q578.01 197.88 576.81 196.74Q575.61 195.60 575.61 193.75Q575.61 192.53 576.16 191.62Q576.71 190.70 577.70 190.19Q578.68 189.67 579.95 189.67L584.03 189.67L584.03 188.64Q584.03 186.07 581.22 186.07Q579.98 186.07 579.21 186.53Q578.44 186.98 578.39 187.80L576.23 187.80Q576.35 186.24 577.68 185.22Q579.02 184.20 581.22 184.20Q583.62 184.20 584.91 185.35Q586.19 186.50 586.19 188.57L586.19 197.64L584.06 197.64L584.06 195.24L584.01 195.24Q583.82 196.46 582.78 197.17Q581.75 197.88 580.05 197.88M580.58 196.06Q582.16 196.06 583.10 195.29Q584.03 194.52 584.03 193.20L584.03 191.35L580.19 191.35Q579.14 191.35 578.48 191.99Q577.82 192.62 577.82 193.68Q577.82 194.78 578.55 195.42Q579.28 196.06 580.58 196.06" fill="white" fill-opacity="0.7"/>
<path d="M601.60 197.64L597.52 197.64Q595.77 197.64 594.72 196.62Q593.68 195.60 593.68 193.92L593.68 182.09L589.12 182.09L589.12 180.12L595.84 180.12L595.84 193.92Q595.84 194.74 596.30 195.20Q596.75 195.67 597.52 195.67L601.60 195.67" fill="white" fill-opacity="0.7"/>
<path d="M623.63 197.88Q621.66 197.88 620.48 196.56Q619.29 195.24 619.29 192.98L619.29 189.12Q619.29 186.84 620.46 185.52Q621.64 184.20 623.63 184.20Q625.12 184.20 626.09 184.94Q627.06 185.69 627.26 186.96L627.28 186.96L627.23 183.96L627.23 180.12L629.39 180.12L629.39 197.64L627.23 197.64L627.23 195.12L627.21 195.12Q627.04 196.42 626.08 197.15Q625.12 197.88 623.63 197.88M624.35 196.01Q625.70 196.01 626.46 195.17Q627.23 194.33 627.23 192.84L627.23 189.24Q627.23 187.75 626.46 186.91Q625.70 186.07 624.35 186.07Q622.98 186.07 622.22 186.78Q621.45 187.49 621.45 189.12L621.45 192.96Q621.45 194.57 622.22 195.29Q622.98 196.01 624.35 196.01" fill="white" fill-opacity="0.7"/>
<path d="M637.65 197.88Q635.61 197.88 634.41 196.74Q633.21 195.60 633.21 193.75Q633.21 192.53 633.76 191.62Q634.31 190.70 635.30 190.19Q636.28 189.67 637.55 189.67L641.63 189.67L641.63 188.64Q641.63 186.07 638.82 186.07Q637.58 186.07 636.81 186.53Q636.04 186.98 635.99 187.80L633.83 187.80Q633.95 186.24 635.28 185.22Q636.62 184.20 638.82 184.20Q641.22 184.20 642.51 185.35Q643.79 186.50 643.79 188.57L643.79 197.64L641.66 197.64L641.66 195.24L641.61 195.24Q641.42 196.46 640.38 197.17Q639.35 197.88 637.65 197.88M638.18 196.06Q639.76 196.06 640.70 195.29Q641.63 194.52 641.63 193.20L641.63 191.35L637.79 191.35Q636.74 191.35 636.08 191.99Q635.42 192.62 635.42 193.68Q635.42 194.78 636.15 195.42Q636.88 196.06 638.18 196.06" fill="white" fill-opacity="0.7"/>
<path d="M658.36 197.64L654.52 197.64Q652.89 197.64 651.90 196.69Q650.92 195.74 650.92 194.16L650.92 186.41L647.13 186.41L647.13 184.44L650.92 184.44L650.92 180.72L653.08 180.72L653.08 184.44L658.48 184.44L658.48 186.41L653.08 186.41L653.08 194.16Q653.08 194.83 653.48 195.25Q653.87 195.67 654.52 195.67L658.36 195.67" fill="white" fill-opacity="0.7"/>
<path d="M666.45 197.88Q664.41 197.88 663.21 196.74Q662.01 195.60 662.01 193.75Q662.01 192.53 662.56 191.62Q663.11 190.70 664.10 190.19Q665.08 189.67 666.35 189.67L670.43 189.67L670.43 188.64Q670.43 186.07 667.62 186.07Q666.38 186.07 665.61 186.53Q664.84 186.98 664.79 187.80L662.63 187.80Q662.75 186.24 664.08 185.22Q665.42 184.20 667.62 184.20Q670.02 184.20 671.31 185.35Q672.59 186.50 672.59 188.57L672.59 197.64L670.46 197.64L670.46 195.24L670.41 195.24Q670.22 196.46 669.18 197.17Q668.15 197.88 666.45 197.88M666.98 196.06Q668.56 196.06 669.50 195.29Q670.43 194.52 670.43 193.20L670.43 191.35L666.59 191.35Q665.54 191.35 664.88 191.99Q664.22 192.62 664.22 193.68Q664.22 194.78 664.95 195.42Q665.68 196.06 666.98 196.06" fill="white" fill-opacity="0.7"/>
<path d="M694.48 197.64L692.10 197.64L689.94 184.44L691.82 184.44L693.16 193.75Q693.23 194.28 693.30 194.92Q693.38 195.55 693.40 195.96Q693.45 195.55 693.51 194.92Q693.57 194.28 693.66 193.75L695.32 184.44L697.48 184.44L699.14 193.75Q699.23 194.28 699.32 194.92Q699.40 195.55 699.42 195.96Q699.47 195.55 699.54 194.92Q699.62 194.28 699.69 193.75L701.08 184.44L702.86 184.44L700.60 197.64L698.22 197.64L696.71 188.52Q696.62 187.85 696.53 187.09Q696.45 186.34 696.40 185.93Q696.38 186.34 696.28 187.09Q696.18 187.85 696.06 188.52" fill="white" fill-opacity="0.7"/>
<path d="M716.92 197.64L705.64 197.64L705.64 195.67L710.32 195.67L710.32 186.41L706.12 186.41L706.12 184.44L712.48 184.44L712.48 195.67L716.92 195.67L716.92 197.64M711.16 182.06Q710.37 182.06 709.91 181.66Q709.46 181.25 709.46 180.55Q709.46 179.83 709.91 179.41Q710.37 178.99 711.16 178.99Q711.95 178.99 712.41 179.41Q712.86 179.83 712.86 180.55Q712.86 181.25 712.41 181.66Q711.95 182.06 711.16 182.06" fill="white" fill-opacity="0.7"/>
<path d="M730.36 197.64L726.52 197.64Q724.89 197.64 723.90 196.69Q722.92 195.74 722.92 194.16L722.92 186.41L719.13 186.41L719.13 184.44L722.92 184.44L722.92 180.72L725.08 180.72L725.08 184.44L730.48 184.44L730.48 186.41L725.08 186.41L725.08 194.16Q725.08 194.83 725.48 195.25Q725.87 195.67 726.52 195.67L730.36 195.67" fill="white" fill-opacity="0.7"/>
<path d="M736.77 197.64L734.61 197.64L734.61 180.12L736.77 180.12L736.77 186.96L736.79 186.96Q736.96 185.64 737.87 184.92Q738.78 184.20 740.30 184.20Q742.29 184.20 743.46 185.42Q744.64 186.65 744.64 188.76L744.64 197.64L742.48 197.64L742.48 189.12Q742.48 187.63 741.72 186.83Q740.97 186.02 739.67 186.02Q738.33 186.02 737.55 186.86Q736.77 187.70 736.77 189.24" fill="white" fill-opacity="0.7"/>
<path d="M768.52 197.64L766.36 197.64L766.36 188.21L762.52 188.21L762.52 186.24L766.36 186.24L766.36 183.48Q766.36 181.92 767.34 181.02Q768.33 180.12 770.06 180.12L773.92 180.12L773.92 182.09L770.06 182.09Q768.52 182.09 768.52 183.48L768.52 186.24L773.92 186.24L773.92 188.21L768.52 188.21" fill="white" fill-opacity="0.7"/>
<path d="M780.45 197.64L778.29 197.64L778.29 184.44L780.45 184.44L780.45 186.96L780.50 186.96Q780.66 185.69 781.58 184.94Q782.49 184.20 784.02 184.20Q786.09 184.20 787.20 185.44Q788.32 186.67 788.32 188.95L788.32 190.08L786.16 190.08L786.16 188.95Q786.16 186.07 783.35 186.07Q781.94 186.07 781.19 186.89Q780.45 187.70 780.45 189.24" fill="white" fill-opacity="0.7"/>
<path d="M797.20 197.88Q794.87 197.88 793.44 196.48Q792.02 195.07 792.02 192.60L792.02 189.48Q792.02 187.01 793.44 185.60Q794.87 184.20 797.20 184.20Q798.76 184.20 799.92 184.82Q801.09 185.45 801.74 186.58Q802.38 187.70 802.38 189.24L802.38 191.59L794.13 191.59L794.13 192.84Q794.13 194.30 794.97 195.16Q795.81 196.01 797.20 196.01Q798.40 196.01 799.18 195.54Q799.96 195.07 800.13 194.28L802.29 194.28Q802.07 195.94 800.68 196.91Q799.29 197.88 797.20 197.88M794.13 189.24L794.13 189.91L800.27 189.91L800.27 189.24Q800.27 187.68 799.47 186.83Q798.66 185.98 797.20 185.98Q795.74 185.98 794.93 186.83Q794.13 187.68 794.13 189.24" fill="white" fill-opacity="0.7"/>
<path d="M811.60 197.88Q809.27 197.88 807.84 196.48Q806.42 195.07 806.42 192.60L806.42 189.48Q806.42 187.01 807.84 185.60Q809.27 184.20 811.60 184.20Q813.16 184.20 814.32 184.82Q815.49 185.45 816.14 186.58Q816.78 187.70 816.78 189.24L816.78 191.59L808.53 191.59L808.53 192.84Q808.53 194.30 809.37 195.16Q810.21 196.01 811.60 196.01Q812.80 196.01 813.58 195.54Q814.36 195.07 814.53 194.28L816.69 194.28Q816.47 195.94 815.08 196.91Q813.69 197.88 811.60 197.88M808.53 189.24L808.53 189.91L814.67 189.91L814.67 189.24Q814.67 187.68 813.87 186.83Q813.06 185.98 811.60 185.98Q810.14 185.98 809.33 186.83Q808.53 187.68 808.53 189.24" fill="white" fill-opacity="0.7"/>
<path d="M829.84 190.68L822.16 190.68L822.16 188.76L829.84 188.76" fill="white" fill-opacity="0.7"/>
<path d="M845.56 197.64L841.72 197.64Q840.09 197.64 839.10 196.69Q838.12 195.74 838.12 194.16L838.12 186.41L834.33 186.41L834.33 184.44L838.12 184.44L838.12 180.72L840.28 180.72L840.28 184.44L845.68 184.44L845.68 186.41L840.28 186.41L840.28 194.16Q840.28 194.83 840.68 195.25Q841.07 195.67 841.72 195.67L845.56 195.67" fill="white" fill-opacity="0.7"/>
<path d="M854.80 197.88Q852.47 197.88 851.04 196.48Q849.62 195.07 849.62 192.60L849.62 189.48Q849.62 187.01 851.04 185.60Q852.47 184.20 854.80 184.20Q856.36 184.20 857.52 184.82Q858.69 185.45 859.34 186.58Q859.98 187.70 859.98 189.24L859.98 191.59L851.73 191.59L851.73 192.84Q851.73 194.30 852.57 195.16Q853.41 196.01 854.80 196.01Q856 196.01 856.78 195.54Q857.56 195.07 857.73 194.28L859.89 194.28Q859.67 195.94 858.28 196.91Q856.89 197.88 854.80 197.88M851.73 189.24L851.73 189.91L857.87 189.91L857.87 189.24Q857.87 187.68 857.07 186.83Q856.26 185.98 854.80 185.98Q853.34 185.98 852.53 186.83Q851.73 187.68 851.73 189.24" fill="white" fill-opacity="0.7"/>
<path d="M865.74 197.64L863.20 197.64L867.88 190.85L863.49 184.44L866.03 184.44L868.65 188.52Q868.82 188.78 868.97 189.10Q869.13 189.41 869.22 189.60Q869.30 189.41 869.45 189.10Q869.61 188.78 869.78 188.52L872.39 184.44L874.94 184.44L870.54 190.87L875.20 197.64L872.66 197.64L869.82 193.32Q869.66 193.06 869.50 192.71Q869.34 192.36 869.22 192.14Q869.13 192.36 868.95 192.71Q868.77 193.06 868.58 193.32" fill="white" fill-opacity="0.7"/>
<path d="M888.76 197.64L884.92 197.64Q883.29 197.64 882.30 196.69Q881.32 195.74 881.32 194.16L881.32 186.41L877.53 186.41L877.53 184.44L881.32 184.44L881.32 180.72L883.48 180.72L883.48 184.44L888.88 184.44L888.88 186.41L883.48 186.41L883.48 194.16Q883.48 194.83 883.88 195.25Q884.27 195.67 884.92 195.67L888.76 195.67" fill="white" fill-opacity="0.7"/>
<path d="M911.25 197.88Q909.21 197.88 908.01 196.74Q906.81 195.60 906.81 193.75Q906.81 192.53 907.36 191.62Q907.91 190.70 908.90 190.19Q909.88 189.67 911.15 189.67L915.23 189.67L915.23 188.64Q915.23 186.07 912.42 186.07Q911.18 186.07 910.41 186.53Q909.64 186.98 909.59 187.80L907.43 187.80Q907.55 186.24 908.88 185.22Q910.22 184.20 912.42 184.20Q914.82 184.20 916.11 185.35Q917.39 186.50 917.39 188.57L917.39 197.64L915.26 197.64L915.26 195.24L915.21 195.24Q915.02 196.46 913.98 197.17Q912.95 197.88 911.25 197.88M911.78 196.06Q913.36 196.06 914.30 195.29Q915.23 194.52 915.23 193.20L915.23 191.35L911.39 191.35Q910.34 191.35 909.68 191.99Q909.02 192.62 909.02 193.68Q909.02 194.78 909.75 195.42Q910.48 196.06 911.78 196.06" fill="white" fill-opacity="0.7"/>
<path d="M923.97 197.64L921.81 197.64L921.81 184.44L923.97 184.44L923.97 186.96L923.99 186.96Q924.16 185.64 925.07 184.92Q925.98 184.20 927.50 184.20Q929.49 184.20 930.66 185.42Q931.84 186.65 931.84 188.76L931.84 197.64L929.68 197.64L929.68 189.14Q929.68 187.63 928.92 186.83Q928.17 186.02 926.87 186.02Q925.53 186.02 924.75 186.86Q923.97 187.70 923.97 189.24" fill="white" fill-opacity="0.7"/>
<path d="M940.43 197.88Q938.46 197.88 937.28 196.56Q936.09 195.24 936.09 192.98L936.09 189.12Q936.09 186.84 937.26 185.52Q938.44 184.20 940.43 184.20Q941.92 184.20 942.89 184.94Q943.86 185.69 944.06 186.96L944.08 186.96L944.03 183.96L944.03 180.12L946.19 180.12L946.19 197.64L944.03 197.64L944.03 195.12L944.01 195.12Q943.84 196.42 942.88 197.15Q941.92 197.88 940.43 197.88M941.15 196.01Q942.50 196.01 943.26 195.17Q944.03 194.33 944.03 192.84L944.03 189.24Q944.03 187.75 943.26 186.91Q942.50 186.07 941.15 186.07Q939.78 186.07 939.02 186.78Q938.25 187.49 938.25 189.12L938.25 192.96Q938.25 194.57 939.02 195.29Q939.78 196.01 941.15 196.01" fill="white" fill-opacity="0.7"/>
<path d="M970.12 197.64L967.96 197.64L967.96 188.21L964.12 188.21L964.12 186.24L967.96 186.24L967.96 183.48Q967.96 181.92 968.94 181.02Q969.93 180.12 971.66 180.12L975.52 180.12L975.52 182.09L971.66 182.09Q970.12 182.09 970.12 183.48L970.12 186.24L975.52 186.24L975.52 188.21L970.12 188.21" fill="white" fill-opacity="0.7"/>
<path d="M983.25 197.88Q981.21 197.88 980.01 196.74Q978.81 195.60 978.81 193.75Q978.81 192.53 979.36 191.62Q979.91 190.70 980.90 190.19Q981.88 189.67 983.15 189.67L987.23 189.67L987.23 188.64Q987.23 186.07 984.42 186.07Q983.18 186.07 982.41 186.53Q981.64 186.98 981.59 187.80L979.43 187.80Q979.55 186.24 980.88 185.22Q982.22 184.20 984.42 184.20Q986.82 184.20 988.11 185.35Q989.39 186.50 989.39 188.57L989.39 197.64L987.26 197.64L987.26 195.24L987.21 195.24Q987.02 196.46 985.98 197.17Q984.95 197.88 983.25 197.88M983.78 196.06Q985.36 196.06 986.30 195.29Q987.23 194.52 987.23 193.20L987.23 191.35L983.39 191.35Q982.34 191.35 981.68 191.99Q981.02 192.62 981.02 193.68Q981.02 194.78 981.75 195.42Q982.48 196.06 983.78 196.06" fill="white" fill-opacity="0.7"/>
<path d="M998.99 197.88Q996.59 197.88 995.15 196.54Q993.71 195.19 993.71 192.84L993.71 189.24Q993.71 186.89 995.15 185.54Q996.59 184.20 998.99 184.20Q1001.27 184.20 1002.68 185.42Q1004.08 186.65 1004.15 188.76L1001.99 188.76Q1001.92 187.49 1001.13 186.80Q1000.34 186.12 998.99 186.12Q997.58 186.12 996.72 186.92Q995.87 187.73 995.87 189.22L995.87 192.84Q995.87 194.33 996.72 195.14Q997.58 195.96 998.99 195.96Q1000.34 195.96 1001.13 195.26Q1001.92 194.57 1001.99 193.32L1004.15 193.32Q1004.08 195.43 1002.68 196.66Q1001.27 197.88 998.99 197.88" fill="white" fill-opacity="0.7"/>
<path d="M1013.20 197.88Q1010.87 197.88 1009.44 196.48Q1008.02 195.07 1008.02 192.60L1008.02 189.48Q1008.02 187.01 1009.44 185.60Q1010.87 184.20 1013.20 184.20Q1014.76 184.20 1015.92 184.82Q1017.09 185.45 1017.74 186.58Q1018.38 187.70 1018.38 189.24L1018.38 191.59L1010.13 191.59L1010.13 192.84Q1010.13 194.30 1010.97 195.16Q1011.81 196.01 1013.20 196.01Q1014.40 196.01 1015.18 195.54Q1015.96 195.07 1016.13 194.28L1018.29 194.28Q1018.07 195.94 1016.68 196.91Q1015.29 197.88 1013.20 197.88M1010.13 189.24L1010.13 189.91L1016.27 189.91L1016.27 189.24Q1016.27 187.68 1015.47 186.83Q1014.66 185.98 1013.20 185.98Q1011.74 185.98 1010.93 186.83Q1010.13 187.68 1010.13 189.24" fill="white" fill-opacity="0.7"/>
<path d="M1032.76 197.64L1028.92 197.64Q1027.29 197.64 1026.30 196.69Q1025.32 195.74 1025.32 194.16L1025.32 186.41L1021.53 186.41L1021.53 184.44L1025.32 184.44L1025.32 180.72L1027.48 180.72L1027.48 184.44L1032.88 184.44L1032.88 186.41L1027.48 186.41L1027.48 194.16Q1027.48 194.83 1027.88 195.25Q1028.27 195.67 1028.92 195.67L1032.76 195.67" fill="white" fill-opacity="0.7"/>
<path d="M1042 197.88Q1039.67 197.88 1038.24 196.48Q1036.82 195.07 1036.82 192.60L1036.82 189.48Q1036.82 187.01 1038.24 185.60Q1039.67 184.20 1042 184.20Q1043.56 184.20 1044.72 184.82Q1045.89 185.45 1046.54 186.58Q1047.18 187.70 1047.18 189.24L1047.18 191.59L1038.93 191.59L1038.93 192.84Q1038.93 194.30 1039.77 195.16Q1040.61 196.01 1042 196.01Q1043.20 196.01 1043.98 195.54Q1044.76 195.07 1044.93 194.28L1047.09 194.28Q1046.87 195.94 1045.48 196.91Q1044.09 197.88 1042 197.88M1038.93 189.24L1038.93 189.91L1045.07 189.91L1045.07 189.24Q1045.07 187.68 1044.27 186.83Q1043.46 185.98 1042 185.98Q1040.54 185.98 1039.73 186.83Q1038.93 187.68 1038.93 189.24" fill="white" fill-opacity="0.7"/>
<path d="M1055.63 197.88Q1053.66 197.88 1052.48 196.56Q1051.29 195.24 1051.29 192.98L1051.29 189.12Q1051.29 186.84 1052.46 185.52Q1053.64 184.20 1055.63 184.20Q1057.12 184.20 1058.09 184.94Q1059.06 185.69 1059.26 186.96L1059.28 186.96L1059.23 183.96L1059.23 180.12L1061.39 180.12L1061.39 197.64L1059.23 197.64L1059.23 195.12L1059.21 195.12Q1059.04 196.42 1058.08 197.15Q1057.12 197.88 1055.63 197.88M1056.35 196.01Q1057.70 196.01 1058.46 195.17Q1059.23 194.33 1059.23 192.84L1059.23 189.24Q1059.23 187.75 1058.46 186.91Q1057.70 186.07 1056.35 186.07Q1054.98 186.07 1054.22 186.78Q1053.45 187.49 1053.45 189.12L1053.45 192.96Q1053.45 194.57 1054.22 195.29Q1054.98 196.01 1056.35 196.01" fill="white" fill-opacity="0.7"/>
<path d="M77.73 229.83L76.67 229.83Q74.46 229.83 73.25 228.84Q72.04 227.84 72.04 226.02L74.20 226.02Q74.20 226.93 74.85 227.44Q75.50 227.96 76.67 227.96L77.73 227.96Q78.93 227.96 79.59 227.43Q80.25 226.90 80.25 225.94Q80.25 224.24 78.69 224.02L75.04 223.50Q73.70 223.30 72.95 222.38Q72.21 221.46 72.21 219.94Q72.21 218.22 73.40 217.23Q74.58 216.25 76.67 216.25L77.73 216.25Q79.65 216.25 80.86 217.20Q82.07 218.14 82.17 219.68L79.98 219.68Q79.94 218.98 79.32 218.53Q78.71 218.07 77.73 218.07L76.67 218.07Q75.57 218.07 74.94 218.58Q74.32 219.08 74.32 219.94Q74.32 221.34 75.59 221.53L79 222.01Q82.36 222.49 82.36 225.94Q82.36 227.79 81.15 228.81Q79.94 229.83 77.73 229.83" fill="white" fill-opacity="0.7"/>
<path d="M91.60 229.88Q89.27 229.88 87.84 228.48Q86.42 227.07 86.42 224.60L86.42 221.48Q86.42 219.01 87.84 217.60Q89.27 216.20 91.60 216.20Q93.16 216.20 94.32 216.82Q95.49 217.45 96.14 218.58Q96.78 219.70 96.78 221.24L96.78 223.59L88.53 223.59L88.53 224.84Q88.53 226.30 89.37 227.16Q90.21 228.01 91.60 228.01Q92.80 228.01 93.58 227.54Q94.36 227.07 94.53 226.28L96.69 226.28Q96.47 227.94 95.08 228.91Q93.69 229.88 91.60 229.88M88.53 221.24L88.53 221.91L94.67 221.91L94.67 221.24Q94.67 219.68 93.87 218.83Q93.06 217.98 91.60 217.98Q90.14 217.98 89.33 218.83Q88.53 219.68 88.53 221.24" fill="white" fill-opacity="0.7"/>
<path d="M104.85 229.88Q102.81 229.88 101.61 228.74Q100.41 227.60 100.41 225.75Q100.41 224.53 100.96 223.62Q101.51 222.70 102.50 222.19Q103.48 221.67 104.75 221.67L108.83 221.67L108.83 220.64Q108.83 218.07 106.02 218.07Q104.78 218.07 104.01 218.53Q103.24 218.98 103.19 219.80L101.03 219.80Q101.15 218.24 102.48 217.22Q103.82 216.20 106.02 216.20Q108.42 216.20 109.71 217.35Q110.99 218.50 110.99 220.57L110.99 229.64L108.86 229.64L108.86 227.24L108.81 227.24Q108.62 228.46 107.58 229.17Q106.55 229.88 104.85 229.88M105.38 228.06Q106.96 228.06 107.90 227.29Q108.83 226.52 108.83 225.20L108.83 223.35L104.99 223.35Q103.94 223.35 103.28 223.99Q102.62 224.62 102.62 225.68Q102.62 226.78 103.35 227.42Q104.08 228.06 105.38 228.06" fill="white" fill-opacity="0.7"/>
<path d="M118.05 229.64L115.89 229.64L115.89 216.44L118.05 216.44L118.05 218.96L118.10 218.96Q118.26 217.69 119.18 216.94Q120.09 216.20 121.62 216.20Q123.69 216.20 124.80 217.44Q125.92 218.67 125.92 220.95L125.92 222.08L123.76 222.08L123.76 220.95Q123.76 218.07 120.95 218.07Q119.54 218.07 118.79 218.89Q118.05 219.70 118.05 221.24" fill="white" fill-opacity="0.7"/>
<path d="M134.99 229.88Q132.59 229.88 131.15 228.54Q129.71 227.19 129.71 224.84L129.71 221.24Q129.71 218.89 131.15 217.54Q132.59 216.20 134.99 216.20Q137.27 216.20 138.68 217.42Q140.08 218.65 140.15 220.76L137.99 220.76Q137.92 219.49 137.13 218.80Q136.34 218.12 134.99 218.12Q133.58 218.12 132.72 218.92Q131.87 219.73 131.87 221.22L131.87 224.84Q131.87 226.33 132.72 227.14Q133.58 227.96 134.99 227.96Q136.34 227.96 137.13 227.26Q137.92 226.57 137.99 225.32L140.15 225.32Q140.08 227.43 138.68 228.66Q137.27 229.88 134.99 229.88" fill="white" fill-opacity="0.7"/>
<path d="M146.37 229.64L144.21 229.64L144.21 212.12L146.37 212.12L146.37 218.96L146.39 218.96Q146.56 217.64 147.47 216.92Q148.38 216.20 149.90 216.20Q151.89 216.20 153.06 217.42Q154.24 218.65 154.24 220.76L154.24 229.64L152.08 229.64L152.08 221.12Q152.08 219.63 151.32 218.83Q150.57 218.02 149.27 218.02Q147.93 218.02 147.15 218.86Q146.37 219.70 146.37 221.24" fill="white" fill-opacity="0.7"/>
<path d="M163.60 229.88Q162.71 229.88 162.17 229.35Q161.63 228.82 161.63 227.98Q161.63 227.10 162.17 226.54Q162.71 225.99 163.60 225.99Q164.49 225.99 165.03 226.54Q165.57 227.10 165.57 227.98Q165.57 228.82 165.03 229.35Q164.49 229.88 163.60 229.88" fill="white" fill-opacity="0.7"/>
<path d="M109.90 136.06L71.70 136.06L71.70 127.42L86 127.42L86 74.62L71.70 74.62L71.70 65.98L109.90 65.98L109.90 74.62L95.60 74.62L95.60 127.42L109.90 127.42L109.90 136.06M146.86 136.06L128.05 136.06L128.05 65.98L146.86 65.98Q153.68 65.98 158.72 68.62Q163.76 71.26 166.54 76.01Q169.33 80.76 169.33 87.20L169.33 114.75Q169.33 121.18 166.54 125.98Q163.76 130.78 158.72 133.42Q153.68 136.06 146.86 136.06M137.55 74.43L137.55 127.61L146.86 127.61Q152.91 127.61 156.37 124.16Q159.82 120.70 159.82 114.75L159.82 87.20Q159.82 81.24 156.37 77.84Q152.91 74.43 146.86 74.43L137.55 74.43M227.31 136.06L186.51 136.06L186.51 65.98L227.31 65.98L227.31 74.52L195.92 74.52L195.92 95.36L223.95 95.36L223.95 103.61L195.92 103.61L195.92 127.52L227.31 127.52L227.31 136.06M248.91 136.06L239.22 136.06L257.36 65.98L269.94 65.98L287.98 136.06L278.29 136.06L273.87 117.82L253.33 117.82L248.91 136.06M260.34 88.92L255.25 109.95L271.95 109.95L266.96 89.02Q265.52 83.26 264.66 79.23Q263.79 75.20 263.60 73.76Q263.41 75.20 262.54 79.23Q261.68 83.26 260.34 88.92M321.97 137.02Q312.27 137.02 306.56 131.60Q300.85 126.17 300.85 116.67L300.85 85.28Q300.85 75.87 306.56 70.44Q312.27 65.02 321.97 65.02Q331.57 65.02 337.28 70.49Q342.99 75.96 342.99 85.28L333.49 85.28Q333.49 79.61 330.42 76.54Q327.34 73.47 321.97 73.47Q316.50 73.47 313.42 76.54Q310.35 79.61 310.35 85.28L310.35 116.67Q310.35 122.43 313.42 125.50Q316.50 128.57 321.97 128.57Q327.34 128.57 330.42 125.50Q333.49 122.43 333.49 116.67L342.99 116.67Q342.99 126.08 337.28 131.55Q331.57 137.02 321.97 137.02M378.80 137.02Q369.20 137.02 363.63 131.45Q358.06 125.88 358.06 115.71L358.06 86.24Q358.06 76.16 363.63 70.59Q369.20 65.02 378.80 65.02Q388.40 65.02 393.97 70.54Q399.54 76.06 399.54 86.24L399.54 115.71Q399.54 125.88 393.97 131.45Q388.40 137.02 378.80 137.02M378.80 128.57Q384.18 128.57 387.10 125.50Q390.03 122.43 390.03 116.67L390.03 85.28Q390.03 79.61 387.15 76.54Q384.27 73.47 378.80 73.47Q373.33 73.47 370.45 76.54Q367.57 79.61 367.57 85.28L367.57 116.67Q367.57 122.43 370.50 125.50Q373.42 128.57 378.80 128.57M424.78 136.06L415.86 136.06L415.86 65.98L428.14 65.98L449.07 125.12Q448.78 122.62 448.54 118.92Q448.30 115.23 448.16 111.24Q448.02 107.26 448.02 103.71L448.02 65.98L457.04 65.98L457.04 136.06L444.66 136.06L423.92 76.92Q424.11 79.42 424.30 83.02Q424.50 86.62 424.64 90.56Q424.78 94.49 424.78 97.95L424.78 136.06M494.38 137.02Q484.02 137.02 477.87 131.60Q471.73 126.17 471.73 116.67L481.23 116.67Q481.23 122.24 484.78 125.40Q488.34 128.57 494.38 128.57Q500.14 128.57 503.55 125.36Q506.96 122.14 506.96 116.76Q506.96 112.73 504.75 109.71Q502.54 106.68 498.51 105.63L488.14 102.84Q481.33 100.92 477.34 95.88Q473.36 90.84 473.36 83.93Q473.36 78.27 475.90 74Q478.45 69.72 483.06 67.37Q487.66 65.02 493.71 65.02Q499.86 65.02 504.51 67.37Q509.17 69.72 511.76 73.95Q514.35 78.17 514.35 83.74L504.94 83.74Q504.94 79.13 501.82 76.25Q498.70 73.37 493.71 73.37Q488.72 73.37 485.70 76.25Q482.67 79.13 482.67 83.74Q482.67 87.48 484.69 90.03Q486.70 92.57 490.35 93.63L501.01 96.51Q508.21 98.43 512.24 103.85Q516.27 109.28 516.27 116.76Q516.27 122.91 513.58 127.47Q510.90 132.03 505.95 134.52Q501.01 137.02 494.38 137.02M551.60 137.02Q541.71 137.02 536.38 131.55Q531.06 126.08 531.06 116.67L531.06 65.98L540.56 65.98L540.56 116.67Q540.56 122.24 543.30 125.40Q546.03 128.57 551.60 128.57Q557.07 128.57 559.90 125.40Q562.74 122.24 562.74 116.67L562.74 65.98L572.24 65.98L572.24 116.67Q572.24 126.17 566.91 131.60Q561.58 137.02 551.60 137.02M633.39 136.06L592.69 136.06L592.69 65.98L602.19 65.98L602.19 127.42L633.39 127.42L633.39 136.06M671.60 136.06L662.10 136.06L662.10 74.62L643.09 74.62L643.09 65.98L690.51 65.98L690.51 74.62L671.60 74.62L671.60 136.06M770.38 136.06L761.46 136.06L761.46 65.98L773.74 65.98L794.67 125.12Q794.38 122.62 794.14 118.92Q793.90 115.23 793.76 111.24Q793.62 107.26 793.62 103.71L793.62 65.98L802.64 65.98L802.64 136.06L790.26 136.06L769.52 76.92Q769.71 79.42 769.90 83.02Q770.10 86.62 770.24 90.56Q770.38 94.49 770.38 97.95L770.38 136.06M824.91 136.06L815.22 136.06L833.36 65.98L845.94 65.98L863.98 136.06L854.29 136.06L849.87 117.82L829.33 117.82L824.91 136.06M836.34 88.92L831.25 109.95L847.95 109.95L842.96 89.02Q841.52 83.26 840.66 79.23Q839.79 75.20 839.60 73.76Q839.41 75.20 838.54 79.23Q837.68 83.26 836.34 88.92M885.58 136.06L876.66 136.06L876.66 65.98L888.94 65.98L909.87 125.12Q909.58 122.62 909.34 118.92Q909.10 115.23 908.96 111.24Q908.82 107.26 908.82 103.71L908.82 65.98L917.84 65.98L917.84 136.06L905.46 136.06L884.72 76.92Q884.91 79.42 885.10 83.02Q885.30 86.62 885.44 90.56Q885.58 94.49 885.58 97.95L885.58 136.06M954.80 137.02Q945.20 137.02 939.63 131.45Q934.06 125.88 934.06 115.71L934.06 86.24Q934.06 76.16 939.63 70.59Q945.20 65.02 954.80 65.02Q964.40 65.02 969.97 70.54Q975.54 76.06 975.54 86.24L975.54 115.71Q975.54 125.88 969.97 131.45Q964.40 137.02 954.80 137.02M954.80 128.57Q960.18 128.57 963.10 125.50Q966.03 122.43 966.03 116.67L966.03 85.28Q966.03 79.61 963.15 76.54Q960.27 73.47 954.80 73.47Q949.33 73.47 946.45 76.54Q943.57 79.61 943.57 85.28L943.57 116.67Q943.57 122.43 946.50 125.50Q949.42 128.57 954.80 128.57M1001.55 136.06L992.14 136.06L992.14 65.98L1013.84 65.98Q1020.27 65.98 1025.07 68.52Q1029.87 71.07 1032.56 75.63Q1035.25 80.19 1035.25 86.33Q1035.25 93.44 1031.65 98.52Q1028.05 103.61 1022.10 105.72L1036.21 136.06L1025.74 136.06L1012.40 106.78L1001.55 106.78L1001.55 136.06M1001.55 74.43L1001.55 98.33L1013.84 98.33Q1019.22 98.33 1022.34 95.07Q1025.46 91.80 1025.46 86.43Q1025.46 80.96 1022.29 77.69Q1019.12 74.43 1013.84 74.43L1001.55 74.43M1091.31 136.06L1050.51 136.06L1050.51 65.98L1091.31 65.98L1091.31 74.52L1059.92 74.52L1059.92 95.36L1087.95 95.36L1087.95 103.61L1059.92 103.61L1059.92 127.52L1091.31 127.52L1091.31 136.06M1127.98 137.02Q1118.29 137.02 1112.58 131.60Q1106.86 126.17 1106.86 116.67L1106.86 85.28Q1106.86 75.87 1112.58 70.44Q1118.29 65.02 1127.98 65.02Q1137.58 65.02 1143.30 70.49Q1149.01 75.96 1149.01 85.28L1139.50 85.28Q1139.50 79.61 1136.43 76.54Q1133.36 73.47 1127.98 73.47Q1122.51 73.47 1119.44 76.54Q1116.37 79.61 1116.37 85.28L1116.37 116.67Q1116.37 122.43 1119.44 125.50Q1122.51 128.57 1127.98 128.57Q1133.36 128.57 1136.43 125.50Q1139.50 122.43 1139.50 116.67L1139.50 107.55L1125.87 107.55L1125.87 99.10L1149.01 99.10L1149.01 116.67Q1149.01 126.08 1143.30 131.55Q1137.58 137.02 1127.98 137.02" fill="url(#paint2_linear_0_1)"/>
<g id="Group 1">
<rect id="Rectangle 1" x="26" y="168" width="12" height="184" rx="5" fill="url(#paint3_linear_0_1)" fill-opacity="0.9"/>
</g>
<g id="Group 1_2">
<rect id="Rectangle 2" x="26" y="38" width="12" height="119" rx="5" fill="url(#paint4_linear_0_1)" fill-opacity="0.9"/>
</g>
<ellipse id="Ellipse 1" cx="148.5" cy="573" rx="215.5" ry="214" fill="url(#paint5_linear_0_1)" fill-opacity="0.4"/>
<rect id="Rectangle 3" x="1229" y="48" width="300" height="300" rx="25" fill="#FFFBFB" fill-opacity="0.9"/>
<g id="placeholder-logo"><g transform="translate(1229,48) translate(0.0,68.9) scale(1.8820)"><defs
     id="defs2" />
  <sodipodi:namedview
     id="base"
     pagecolor="#ffffff"
     bordercolor="#666666"
     borderopacity="1.0"
     inkscape:pageopacity="0.0"
     inkscape:pageshadow="2"
     inkscape:zoom="2.2772158"
     inkscape:cx="301.24506"
     inkscape:cy="162.97344"
     inkscape:document-units="mm"
     inkscape:current-layer="layer1"
     showgrid="false"
     inkscape:window-width="1920"
     inkscape:window-height="1016"
     inkscape:window-x="0"
     inkscape:window-y="27"
     inkscape:window-maximized="1"
     fit-margin-top="0"
     fit-margin-left="0"
     fit-margin-right="0"
     fit-margin-bottom="0" />
  <metadata
     id="metadata5">
    <rdf:RDF>
      <cc:Work
         rdf:about="">
        <dc:format>image/svg+xml</dc:format>
        <dc:type
           rdf:resource="http://purl.org/dc/dcmitype/StillImage" />
        <dc:title></dc:title>
      </cc:Work>
    </rdf:RDF>
  </metadata>
  <g
     inkscape:label="Layer 1"
     inkscape:groupmode="layer"
     id="layer1"
     transform="translate(-14.579961,-10.16096)">
    <g
       id="g3866"
       style="fill:#ffffff;stroke-width:1.20485198"
       transform="matrix(0.82997759,0,0,0.82997759,16.030456,9.0589672)">
      <path
         d="M 31.621981,23.14166 V 88.67857 H 14.579961 V 23.14166 Z"
         style="font-style:normal;font-variant:normal;font-weight:normal;font-stretch:normal;font-size:82.90278625px;line-height:125%;font-family:Impact;-inkscape-font-specification:Impact;letter-spacing:0px;word-spacing:0px;fill:#ffffff;fill-opacity:1;stroke:none;stroke-width:0.31878376px;stroke-linecap:butt;stroke-linejoin:miter;stroke-opacity:1"
         id="path4554"
         inkscape:connector-curvature="0" />
      <path
         d="m 73.478391,10.16096 -12.57251,2.12696 q -12.1734,2.05943 -16.255,3.89947 -4.12152,1.8468 -5.92448,4.77934 -1.80298,2.93254 -1.82833,6.18017 -0.0321,3.20774 1.52091,12.38766 l 3.82851,22.63053 q 1.47199,8.70099 2.80982,11.51274 1.29117,2.77858 3.61031,4.11055 2.3124,1.29206 5.42064,1.46416 3.10149,0.13218 9.12831,-0.8874 L 84.410256,74.7797 Z m -14.9329,13.89852 7.19112,42.50709 q -3.63205,0.61444 -4.71331,-0.68062 -1.088,-1.33497 -2.18186,-7.80083 L 54.594291,32.98 q -0.74274,-4.39041 -0.67267,-5.67497 0.0701,-1.28456 0.97335,-2.01215 0.89654,-0.7675 3.65052,-1.2334 z"
         style="font-style:normal;font-variant:normal;font-weight:normal;font-stretch:normal;font-size:82.90278625px;line-height:125%;font-family:Impact;-inkscape-font-specification:Impact;letter-spacing:0px;word-spacing:0px;fill:#ffffff;fill-opacity:1;stroke:none;stroke-width:0.31878376px;stroke-linecap:butt;stroke-linejoin:miter;stroke-opacity:1"
         id="path4556"
         inkscape:connector-curvature="0" />
      <path
         d="m 106.49381,24.53086 26.17827,11.05518 -5.10239,12.08228 -10.47877,-4.42522 -4.83468,11.44833 9.80753,4.14175 -4.85041,11.48562 -9.80753,-4.14176 -5.60634,13.27559 11.52292,4.86616 -5.10239,12.08228 -27.222434,-11.49613 z"
         style="font-style:normal;font-variant:normal;font-weight:normal;font-stretch:normal;font-size:82.90278625px;line-height:125%;font-family:Impact;-inkscape-font-specification:Impact;letter-spacing:0px;word-spacing:0px;fill:#ffffff;fill-opacity:1;stroke:none;stroke-width:0.31878376px;stroke-linecap:butt;stroke-linejoin:miter;stroke-opacity:1"
         id="path4558"
         inkscape:connector-curvature="0" />
      <path
         d="m 164.23316,13.47611 9.75565,65.53691 H 156.54198 L 155.6919,67.23338 h -6.11246 l -1.01199,11.77964 h -17.64923 l 8.66269,-65.53691 z m -9.02702,42.13955 q -1.29535,-11.13197 -2.59071,-27.48584 -2.59071,18.78266 -3.23839,27.48584 z"
         style="font-style:normal;font-variant:normal;font-weight:normal;font-stretch:normal;font-size:82.90278625px;line-height:125%;font-family:Impact;-inkscape-font-specification:Impact;letter-spacing:0px;word-spacing:0px;fill:#ffffff;fill-opacity:1;stroke:none;stroke-width:0.31878376px;stroke-linecap:butt;stroke-linejoin:miter;stroke-opacity:1"
         id="path4560"
         inkscape:connector-curvature="0" />
    </g>
  </g></g></g>
</g>
<defs>
<linearGradient id="paint0_linear_0_1" x1="0" y1="198" x2="1584" y2="198" gradientUnits="userSpaceOnUse">
<stop stop-color="#3D052C"/>
<stop offset="1"/>
</linearGradient>
<linearGradient id="paint1_linear_0_1" x1="323" y1="-224" x2="323" y2="352" gradientUnits="userSpaceOnUse">
<stop stop-color="#28F6F2" stop-opacity="0.4"/>
<stop offset="1" stop-color="#17908E" stop-opacity="0.7"/>
</linearGradient>
<linearGradient id="paint2_linear_0_1" x1="148.5" y1="38" x2="148.5" y2="140" gradientUnits="userSpaceOnUse">
<stop stop-color="white"/>
<stop offset="1" stop-color="#999999"/>
</linearGradient>
<linearGradient id="paint3_linear_0_1" x1="38" y1="260" x2="26" y2="260" gradientUnits="userSpaceOnUse">
<stop stop-color="#D9D9D9"/>
<stop offset="1" stop-color="#737373"/>
</linearGradient>
<linearGradient id="paint4_linear_0_1" x1="38" y1="97.5" x2="26" y2="97.5" gradientUnits="userSpaceOnUse">
<stop stop-color="#D9D9D9"/>
<stop offset="1" stop-color="#737373"/>
</linearGradient>
<linearGradient id="paint5_linear_0_1" x1="27.5" y1="434.5" x2="148.5" y2="787" gradientUnits="userSpaceOnUse">
<stop stop-color="#2E21BC"/>
<stop offset="1" stop-color="#150F56"/>
</linearGradient>
<clipPath id="clip0_0_1">
<rect width="1584" height="396" fill="white"/>
</clipPath>
</defs>
</svg>
